<svg width="800" height="400" viewBox="0 0 800 400" fill="none" xmlns="http://www.w3.org/2000/svg">
  <defs>
    <linearGradient id="bgGradient" x1="0%" y1="0%" x2="0%" y2="100%">
      <stop offset="0%" style="stop-color:#E0F2FE;stop-opacity:1" />
      <stop offset="100%" style="stop-color:#F0F9FF;stop-opacity:1" />
    </linearGradient>
  </defs>
  
  <!-- Background -->
  <rect width="800" height="400" fill="url(#bgGradient)"/>
  
  <!-- HVAC Unit -->
  <rect x="200" y="150" width="400" height="200" rx="20" fill="#4B5563" stroke="#374151" stroke-width="3"/>
  
  <!-- Front panel -->
  <rect x="220" y="170" width="360" height="160" rx="10" fill="#6B7280"/>
  
  <!-- Vents -->
  <rect x="240" y="190" width="80" height="60" rx="5" fill="#374151"/>
  <rect x="340" y="190" width="80" height="60" rx="5" fill="#374151"/>
  <rect x="440" y="190" width="80" height="60" rx="5" fill="#374151"/>
  
  <!-- Vent lines -->
  <path d="M250 200H310M250 210H310M250 220H310M250 230H310M250 240H310" stroke="#6B7280" stroke-width="2"/>
  <path d="M350 200H410M350 210H410M350 220H410M350 230H410M350 240H410" stroke="#6B7280" stroke-width="2"/>
  <path d="M450 200H510M450 210H510M450 220H510M450 230H510M450 240H510" stroke="#6B7280" stroke-width="2"/>
  
  <!-- Control panel -->
  <rect x="240" y="270" width="120" height="40" rx="5" fill="#1F2937"/>
  <circle cx="280" cy="290" r="8" fill="#10B981"/>
  <rect x="300" y="285" width="40" height="10" rx="2" fill="#374151"/>
  
  <!-- Temperature display -->
  <rect x="380" y="270" width="80" height="40" rx="5" fill="#000000"/>
  <text x="420" y="295" text-anchor="middle" fill="#00FF00" font-family="monospace" font-size="16">72°F</text>
  
  <!-- Pipes -->
  <rect x="150" y="240" width="50" height="20" rx="10" fill="#9CA3AF"/>
  <rect x="600" y="240" width="50" height="20" rx="10" fill="#9CA3AF"/>
  
  <!-- Air flow indicators -->
  <path d="M100 200L130 200M110 190L130 200L110 210" stroke="#3B82F6" stroke-width="3" fill="none"/>
  <path d="M100 250L130 250M110 240L130 250L110 260" stroke="#EF4444" stroke-width="3" fill="none"/>
  
  <path d="M670 200L700 200M690 190L700 200L690 210" stroke="#3B82F6" stroke-width="3" fill="none"/>
  <path d="M670 250L700 250M690 240L700 250L690 260" stroke="#EF4444" stroke-width="3" fill="none"/>
  
  <!-- Technician -->
  <circle cx="120" cy="120" r="20" fill="#FDBCB4"/>
  <rect x="105" y="140" width="30" height="40" fill="#1E40AF"/>
  <rect x="100" y="180" width="15" height="30" fill="#374151"/>
  <rect x="125" y="180" width="15" height="30" fill="#374151"/>
  <rect x="95" y="210" width="20" height="10" fill="#000000"/>
  <rect x="125" y="210" width="20" height="10" fill="#000000"/>
  
  <!-- Tools -->
  <rect x="80" y="160" width="20" height="5" fill="#9CA3AF"/>
  <rect x="75" y="155" width="10" height="15" fill="#DC2626"/>
</svg>
