<svg width="800" height="400" viewBox="0 0 800 400" fill="none" xmlns="http://www.w3.org/2000/svg">
  <defs>
    <linearGradient id="roomGrad" x1="0%" y1="0%" x2="0%" y2="100%">
      <stop offset="0%" style="stop-color:#FEF3C7;stop-opacity:1" />
      <stop offset="100%" style="stop-color:#FDE68A;stop-opacity:1" />
    </linearGradient>
  </defs>
  
  <!-- Room background -->
  <rect width="800" height="400" fill="url(#roomGrad)"/>
  
  <!-- Floor -->
  <rect x="0" y="350" width="800" height="50" fill="#92400E"/>
  
  <!-- Pest control technician -->
  <circle cx="150" cy="200" r="20" fill="#FDBCB4"/>
  <rect x="135" y="220" width="30" height="40" fill="#1E40AF"/>
  <rect x="130" y="260" width="15" height="30" fill="#1F2937"/>
  <rect x="155" y="260" width="15" height="30" fill="#1F2937"/>
  <rect x="125" y="290" width="20" height="10" fill="#000000"/>
  <rect x="155" y="290" width="20" height="10" fill="#000000"/>
  
  <!-- Spray tank -->
  <rect x="110" y="230" width="20" height="40" rx="10" fill="#DC2626"/>
  <rect x="115" y="225" width="10" height="10" fill="#9CA3AF"/>
  
  <!-- Spray wand -->
  <rect x="180" y="240" width="40" height="5" fill="#9CA3AF"/>
  <rect x="220" y="235" width="8" height="15" fill="#1F2937"/>
  
  <!-- Spray mist -->
  <circle cx="235" cy="242" r="3" fill="#60A5FA" opacity="0.6"/>
  <circle cx="245" cy="240" r="2" fill="#60A5FA" opacity="0.6"/>
  <circle cx="255" cy="245" r="2" fill="#60A5FA" opacity="0.6"/>
  <circle cx="265" cy="242" r="1" fill="#60A5FA" opacity="0.6"/>
  
  <!-- Insects -->
  <ellipse cx="300" cy="180" rx="8" ry="4" fill="#8B4513"/>
  <circle cx="295" cy="178" r="2" fill="#000000"/>
  <circle cx="305" cy="178" r="2" fill="#000000"/>
  <path d="M290 180L285 175M310 180L315 175M290 182L285 187M310 182L315 187" stroke="#8B4513" stroke-width="1"/>
  
  <ellipse cx="450" cy="220" rx="6" ry="3" fill="#000000"/>
  <path d="M445 220L440 215M455 220L460 215M445 222L440 227M455 222L460 227" stroke="#000000" stroke-width="1"/>
  
  <!-- Dead insects (X marks) -->
  <path d="M380 300L390 310M390 300L380 310" stroke="#DC2626" stroke-width="3"/>
  <path d="M420 320L430 330M430 320L420 330" stroke="#DC2626" stroke-width="3"/>
  <path d="M500 310L510 320M510 310L500 320" stroke="#DC2626" stroke-width="3"/>
  
  <!-- Bait stations -->
  <rect x="600" y="330" width="30" height="20" rx="5" fill="#1F2937"/>
  <circle cx="615" cy="340" r="3" fill="#F59E0B"/>
  
  <rect x="700" y="320" width="30" height="20" rx="5" fill="#1F2937"/>
  <circle cx="715" cy="330" r="3" fill="#F59E0B"/>
  
  <!-- Chemical containers -->
  <rect x="50" y="300" width="25" height="50" fill="#FFFFFF" stroke="#DC2626" stroke-width="2"/>
  <rect x="55" y="305" width="15" height="15" fill="#DC2626"/>
  <text x="62" y="315" text-anchor="middle" fill="#FFFFFF" font-family="Arial" font-size="8">⚠</text>
  
  <!-- Clipboard -->
  <rect x="250" y="100" width="40" height="60" fill="#FFFFFF" stroke="#9CA3AF" stroke-width="2"/>
  <rect x="255" y="110" width="30" height="3" fill="#1F2937"/>
  <rect x="255" y="120" width="25" height="3" fill="#1F2937"/>
  <rect x="255" y="130" width="30" height="3" fill="#1F2937"/>
  <rect x="255" y="140" width="20" height="3" fill="#1F2937"/>
  
  <!-- Flashlight -->
  <rect x="350" y="340" width="40" height="10" rx="5" fill="#1F2937"/>
  <circle cx="390" cy="345" r="8" fill="#FDE047"/>
  <path d="M398 345L420 345" stroke="#FDE047" stroke-width="3"/>
  
  <!-- Ant trail -->
  <circle cx="500" cy="360" r="2" fill="#8B4513"/>
  <circle cx="510" cy="358" r="2" fill="#8B4513"/>
  <circle cx="520" cy="360" r="2" fill="#8B4513"/>
  <circle cx="530" cy="358" r="2" fill="#8B4513"/>
  <circle cx="540" cy="360" r="2" fill="#8B4513"/>
  <circle cx="550" cy="358" r="2" fill="#8B4513"/>
</svg>
