<svg width="96" height="96" viewBox="0 0 96 96" fill="none" xmlns="http://www.w3.org/2000/svg">
  <rect x="24" y="32" width="48" height="32" rx="4" fill="#3B82F6" stroke="#1E40AF" stroke-width="2"/>
  <path d="M28 36H68M28 44H68M28 52H68M28 60H68" stroke="#1E40AF" stroke-width="1"/>
  <path d="M32 32V64M40 32V64M48 32V64M56 32V64M64 32V64" stroke="#1E40AF" stroke-width="1"/>
  <circle cx="48" cy="16" r="6" fill="#F59E0B"/>
  <path d="M48 8V12M60 16H56M48 20V24M36 16H40M54.24 9.76L51.76 12.24M54.24 22.24L51.76 19.76M41.76 9.76L44.24 12.24M41.76 22.24L44.24 19.76" stroke="#F59E0B" stroke-width="2"/>
  <rect x="44" y="64" width="8" height="8" fill="#6B7280"/>
</svg>
